<?xml version="1.0" encoding="iso-8859-1"?>
<!-- Generator: Adobe Illustrator 19.0.0, SVG Export Plug-In . SVG Version: 6.00 Build 0)  -->
<svg version="1.1" id="Layer_1" xmlns="http://www.w3.org/2000/svg" xmlns:xlink="http://www.w3.org/1999/xlink" x="0px" y="0px"
	 viewBox="0 0 512 512" style="enable-background:new 0 0 512 512;" xml:space="preserve">
<path style="fill:#48ADE1;" d="M387.366,0H275.45v434.473h111.915c20.949,0,37.93-16.981,37.93-37.933V238.973v-43.474V37.931
	C425.296,16.981,408.314,0,387.366,0z"/>
<path style="fill:#2595B7;" d="M369.12,434.473v-45.814v-161.44V37.888c0-17.529,11.905-32.27,28.07-36.597
	C394.054,0.454,390.763,0,387.366,0H339.72h-28.38H275.45v434.473H369.12z"/>
<rect x="280.821" y="345.21" style="fill:#FF3632;" width="144.484" height="30.722"/>
<rect x="280.821" y="345.21" style="fill:#F22A2A;" width="88.298" height="30.722"/>
<path style="fill:#FFCE54;" d="M462.481,42.794h-54.667H347.6h-10.754h-43.913h-50.766h-20.202h-32.903h-61.776H98.846H74.182
	H49.519c2.478,4.053,3.907,8.815,3.907,13.913s-1.429,9.86-3.907,13.913h24.663h24.664h28.44h61.776h32.903h20.202h50.766h43.913
	H347.6h60.213h54.667c-2.479-4.053-3.907-8.815-3.907-13.913S460.002,46.847,462.481,42.794z"/>
<polygon style="fill:#EAB339;" points="369.12,42.794 347.6,42.794 336.846,42.794 292.933,42.794 275.45,42.794 275.45,70.62 
	292.933,70.62 336.846,70.62 347.6,70.62 369.12,70.62 "/>
<g>
	<circle style="fill:#EE9A04;" cx="483.061" cy="56.707" r="26.713"/>
	<circle style="fill:#EE9A04;" cx="28.939" cy="56.707" r="26.713"/>
</g>
<g>
	<path style="fill:#ED7E06;" d="M478.609,56.707c0-10.78,6.388-20.061,15.583-24.282c-3.389-1.557-7.157-2.431-11.13-2.431
		c-14.755,0-26.713,11.96-26.713,26.713s11.959,26.713,26.713,26.713c3.974,0,7.741-0.874,11.13-2.431
		C484.998,76.77,478.609,67.487,478.609,56.707z"/>
	<path style="fill:#ED7E06;" d="M24.487,56.707c0-10.78,6.389-20.061,15.583-24.282c-3.389-1.557-7.157-2.431-11.13-2.431
		c-14.753,0-26.713,11.96-26.713,26.713S14.186,83.42,28.939,83.42c3.974,0,7.741-0.874,11.13-2.431
		C30.876,76.77,24.487,67.487,24.487,56.707z"/>
</g>
<path style="fill:#82D6F4;" d="M289.82,0H136.735C115.81,0,98.846,16.962,98.846,37.888v189.331v117.059v129.833v24.533
	c0,7.376,5.979,13.357,13.357,13.357h24.533h197.508c7.376,0,13.357-5.98,13.357-13.357v-24.533v-14.422v-71.03v-161.44V37.888
	C347.6,16.962,364.563,0,385.489,0H318.2"/>
<path style="fill:#59B7D8;" d="M121.288,498.643v-24.533V344.278V227.219V37.888C121.288,16.962,138.252,0,159.177,0h-22.442
	C115.81,0,98.846,16.962,98.846,37.888v189.331v117.059v129.833v24.533c0,7.376,5.979,13.357,13.357,13.357h22.442
	C127.269,512,121.288,506.02,121.288,498.643z"/>
<polyline style="fill:#FF5855;" points="281.472,465.194 98.846,465.194 98.846,434.473 347.6,434.473 347.6,465.194 
	310.411,465.194 "/>
<rect x="98.849" y="434.477" style="fill:#C64040;" width="22.439" height="30.722"/>
<g>
</g>
<g>
</g>
<g>
</g>
<g>
</g>
<g>
</g>
<g>
</g>
<g>
</g>
<g>
</g>
<g>
</g>
<g>
</g>
<g>
</g>
<g>
</g>
<g>
</g>
<g>
</g>
<g>
</g>
</svg>
